<?xml version="1.0" encoding="iso-8859-1"?>
<!-- Generator: Adobe Illustrator 19.0.0, SVG Export Plug-In . SVG Version: 6.00 Build 0)  -->
<svg version="1.1" id="Capa_1" xmlns="http://www.w3.org/2000/svg" xmlns:xlink="http://www.w3.org/1999/xlink" x="0px" y="0px"
	 viewBox="0 0 479.995 479.995" style="enable-background:new 0 0 479.995 479.995;" xml:space="preserve">
<g>
	<g>
		<g>
			<path d="M457.346,149.262C417.879,64.855,333.123,10.92,239.945,10.917C107.397,10.948-0.03,118.424,0,250.972
				c0.021,93.161,53.953,177.893,138.345,217.353c4.005,1.869,8.767,0.137,10.636-3.868c1.869-4.005,0.137-8.767-3.868-10.636
				C33.041,401.434-15.343,268.113,37.044,156.041S222.753-4.415,334.825,47.972s160.456,185.708,108.068,297.78
				c-22.24,47.578-60.491,85.828-108.068,108.068c-4.005,1.869-5.737,6.631-3.868,10.636s6.631,5.737,10.636,3.868
				C461.664,412.183,513.488,269.333,457.346,149.262z"/>
			<path d="M431.945,250.917c0.061-106.039-85.851-192.049-191.89-192.11c-106.039-0.061-192.049,85.851-192.11,191.89
				c-0.044,76.184,44.96,145.187,114.696,175.86c4.043,1.783,8.765-0.049,10.548-4.092s-0.049-8.765-4.092-10.548
				c-88.979-39.128-129.391-142.98-90.262-231.958c39.128-88.979,142.98-129.391,231.958-90.262
				c88.979,39.128,129.391,142.98,90.262,231.958c-17.732,40.323-49.94,72.531-90.262,90.262c-4.043,1.783-5.875,6.505-4.092,10.548
				s6.505,5.875,10.548,4.092C386.898,395.899,431.881,327.015,431.945,250.917z"/>
			<path d="M383.945,250.917c0.019-79.529-64.437-144.015-143.966-144.034S95.963,171.321,95.945,250.85
				c-0.014,59.136,36.129,112.269,91.136,133.979c4.147,1.525,8.745-0.601,10.27-4.747c1.472-4.003-0.455-8.458-4.382-10.125
				c-65.76-25.944-98.036-100.285-72.092-166.044c25.944-65.76,100.285-98.036,166.044-72.092
				c65.76,25.944,98.036,100.285,72.092,166.044c-13.01,32.977-39.115,59.082-72.092,72.092c-4.147,1.525-6.272,6.123-4.747,10.269
				c1.525,4.147,6.123,6.272,10.27,4.747c0.123-0.045,0.245-0.094,0.366-0.145C347.921,363.288,384.127,310.089,383.945,250.917z"/>
			<path d="M335.945,250.917c-0.012-53.019-43.002-95.99-96.021-95.979s-95.99,43.002-95.979,96.021
				c0.009,42.288,27.689,79.59,68.16,91.853c4.237,1.252,8.687-1.169,9.938-5.406c1.239-4.195-1.121-8.608-5.298-9.906
				c-42.284-12.813-66.175-57.478-53.362-99.762c12.813-42.284,57.478-66.175,99.762-53.362s66.175,57.478,53.362,99.762
				c-7.753,25.587-27.776,45.609-53.362,53.362c-4.228,1.282-6.617,5.748-5.335,9.977c1.022,3.373,4.131,5.679,7.655,5.679
				c0.786,0.003,1.569-0.113,2.32-0.344C308.137,330.356,335.734,293.148,335.945,250.917z"/>
			<path d="M287.945,250.917c0-26.51-21.49-48-48-48c-26.51,0-48,21.49-48,48c0,26.51,21.49,48,48,48
				C266.444,298.891,287.918,277.416,287.945,250.917z M239.945,282.917c-17.673,0-32-14.327-32-32s14.327-32,32-32
				c17.673,0,32,14.327,32,32S257.618,282.917,239.945,282.917z"/>
		</g>
	</g>
</g>
<g>
</g>
<g>
</g>
<g>
</g>
<g>
</g>
<g>
</g>
<g>
</g>
<g>
</g>
<g>
</g>
<g>
</g>
<g>
</g>
<g>
</g>
<g>
</g>
<g>
</g>
<g>
</g>
<g>
</g>
</svg>
